<svg class="header_cartIcon__hdupR" viewBox="0 0 14 18" opacity="1">
<path d="M1.16667 18H12.8333C13.1493 18 13.4167 17.8828 13.6354 17.6484C13.8785 17.4375 14 17.1797 14 16.875V4.5C14 4.19531 13.8785 3.9375 13.6354 3.72656C13.4167 3.49219 13.1493 3.375 12.8333 3.375H10.5C10.4757 2.4375 10.1233 1.64062 9.44271 0.984375C8.76215 0.328125 7.94792 0 7 0C6.05208 0 5.23785 0.328125 4.55729 0.984375C3.87674 1.64062 3.52431 2.4375 3.5 3.375H1.16667C0.850694 3.375 0.571181 3.49219 0.328125 3.72656C0.109375 3.9375 0 4.19531 0 4.5V16.875C0 17.1797 0.109375 17.4375 0.328125 17.6484C0.571181 17.8828 0.850694 18 1.16667 18ZM12.8333 4.5V16.875H1.16667V4.5H12.8333ZM5.35938 1.79297C5.82118 1.34766 6.36806 1.125 7 1.125C7.63194 1.125 8.16667 1.34766 8.60417 1.79297C9.06597 2.21484 9.30903 2.74219 9.33333 3.375H4.66667C4.69097 2.74219 4.92188 2.21484 5.35938 1.79297ZM5.25 6.75H8.75C8.92014 6.75 9.05382 6.70312 9.15104 6.60938C9.27257 6.49219 9.33333 6.35156 9.33333 6.1875C9.33333 6.02344 9.27257 5.89453 9.15104 5.80078C9.05382 5.68359 8.92014 5.625 8.75 5.625H5.25C5.07986 5.625 4.93403 5.68359 4.8125 5.80078C4.71528 5.89453 4.66667 6.02344 4.66667 6.1875C4.66667 6.35156 4.71528 6.49219 4.8125 6.60938C4.93403 6.70312 5.07986 6.75 5.25 6.75Z" fill="currentColor"></path>
</svg>