<svg class="header_searchIcon__WVaT9" viewBox="0 0 18 18" opacity="1">
<path d="M2.13619 2.13619C3.56031 0.712062 5.27626 0 7.28405 0C9.29183 0 11.0078 0.712062 12.4319 2.13619C13.856 3.56031 14.5681 5.27626 14.5681 7.28405C14.5681 8.98833 14.0311 10.5175 12.9572 11.8716L17.7549 16.6693C17.9183 16.8093 18 16.9844 18 17.1946C18 17.428 17.93 17.6148 17.7899 17.7549C17.6265 17.9183 17.4397 18 17.2296 18C16.9961 18 16.8093 17.9183 16.6693 17.7549L11.8716 12.9572C10.5175 14.0311 8.98833 14.5681 7.28405 14.5681C5.27626 14.5681 3.56031 13.856 2.13619 12.4319C0.712063 11.0078 0 9.29183 0 7.28405C0 5.27626 0.712063 3.56031 2.13619 2.13619ZM2.94163 11.6615C4.1323 12.8521 5.57977 13.4475 7.28405 13.4475C8.98833 13.4475 10.4475 12.8521 11.6615 11.6615C12.8521 10.4475 13.4475 8.98833 13.4475 7.28405C13.4475 5.57977 12.8521 4.1323 11.6615 2.94163C10.4475 1.72763 8.98833 1.12062 7.28405 1.12062C5.57977 1.12062 4.1323 1.72763 2.94163 2.94163C1.72763 4.1323 1.12062 5.57977 1.12062 7.28405C1.12062 8.98833 1.72763 10.4475 2.94163 11.6615Z" fill="currentColor"></path>
</svg>